<svg width="147" height="58" viewBox="0 0 147 58" fill="none" xmlns="http://www.w3.org/2000/svg">
<path d="M20.6206 29.8543L18.6127 26.9933C22.0649 26.4668 25.4626 23.3794 26.1966 20.2301C27.2858 15.561 26.2984 10.7918 21.9157 8.32855C20.2394 7.34231 18.4659 6.53473 16.4534 6.53711L4.19084 6.55141L4.16242 18.7055L4.17426 21.8977V26.6121L4.16716 33.3919L4.14111 37.5918L4.15058 41.4986L7.01318 41.5177V27.4363H10.83L15.4447 27.4006L22.8273 37.8657L24.4113 40.1384L25.3939 41.5772L28.749 41.4867L20.6206 29.8543ZM10.141 26.9718L7.01318 27.0028L7.00845 18.8246L7.03212 10.2701L7.05817 6.90398L11.6611 6.97306C13.2853 6.99688 14.822 6.78963 16.4581 7.035C19.0887 7.42807 21.3948 8.78117 22.6379 11.1062C22.806 11.7566 23.0522 12.2306 23.2914 12.8548C24.364 15.6563 24.1083 18.8008 23.1541 21.719C22.1951 24.6468 18.9347 26.7693 16.2995 26.8289L10.141 26.9718Z" fill="#D52685"/>
<path d="M99.0614 36.6937C99.0212 35.7098 99.1538 34.0089 99.1467 33.2299L99.0993 27.9461L99.1064 20.6184L99.1419 14.4461C99.1443 13.9196 99.0851 13.3098 99.0946 12.7666L99.1325 10.7798L99.2106 6.8325C96.7837 6.64669 93.753 7.39947 91.9866 9.27904C91.3094 10.0009 90.5991 11.1062 90.3576 12.0829C89.5194 15.4728 90.2653 18.796 91.3686 21.9906L92.5265 25.34C93.5043 28.1653 94.6716 34.321 92.9006 36.7484C91.2929 38.952 88.5203 39.2498 86.4177 37.7299C84.9023 36.6341 83.8842 35.1643 83.1573 33.4038L81.964 30.5094L80.335 26.6145L78.8599 23.1007L77.2782 19.3439L76.0541 16.4329L74.463 12.688C74.2096 12.0924 73.9752 11.5088 73.6982 10.9442C73.5112 10.5702 73.4354 10.2581 73.0068 10.0437L73.0163 36.1315C73.0163 37.6894 73.7337 38.8782 75.3154 38.9973C76.1157 39.0568 77.0107 39.0449 77.8441 39.002L78.3579 38.9758C78.4574 38.9711 78.4526 39.2545 78.4313 39.3641L72.7937 39.4404L67.3763 39.3737C67.2627 39.3737 67.2698 38.9115 67.3574 38.9186C67.4497 38.9258 67.6865 38.9568 67.7789 38.9568L69.3179 38.9687C69.8388 38.9734 70.6817 38.8948 71.1813 38.7162C72.2894 38.3207 72.6067 37.0772 72.6067 35.9647L72.5901 9.40292C72.5901 8.38571 71.92 6.99687 70.9871 6.93732L67.7504 6.72768L67.3527 6.70386C67.2414 6.69671 67.2224 6.18692 67.3692 6.18692L72.171 6.20359L75.0194 6.23456L76.7621 6.21551L80.0556 14.1721L81.4147 17.4215L83.155 21.5689L84.8266 25.6068L85.9797 28.3964L87.2867 31.5028C87.7129 32.5129 88.1154 33.4562 88.615 34.4401C89.1714 35.5335 90.5612 36.9295 91.7333 36.6198C92.1855 36.5007 92.9266 35.9004 93.0332 35.3143C93.6606 31.8577 93.116 29.5589 92.221 26.2857C91.7262 24.4729 91.1342 22.8339 90.4784 21.0591C90.1658 20.2182 90.0261 19.2248 89.8107 18.31C89.0743 15.1631 89.2945 11.1372 91.7238 8.80975C93.5399 7.06834 95.4269 6.67766 97.8349 6.21551C98.7678 6.03684 100.376 6.2965 101.543 6.25838L103.153 6.20598C104.841 6.15118 106.482 6.1631 108.239 6.18692C107.884 7.61149 105.613 6.2298 104.51 7.22319C104.112 7.58052 103.612 8.3333 103.612 9.0837L103.598 36.1457C103.598 37.2773 103.984 38.4351 105.085 38.8019C106.683 39.3332 108.35 38.235 108.033 39.3879L103.851 39.4666L98.1356 39.4523L94.4562 39.3379C95.292 38.5613 96.1941 39.0854 96.9873 38.9877C98.3251 38.8234 99.1135 38.0372 99.0567 36.6937H99.0614Z" fill="#D52685"/>
<path d="M143.061 38.9973C141.269 39.1902 140.218 37.7704 139.6 36.2196L137.821 31.7648L136.754 29.1087L134.379 23.2889L132.601 18.8508L131.088 15.1703L129.736 11.8947L128.696 9.34813C127.886 7.36136 127.434 5.01487 126.71 6.81821L124.496 12.3331L123.707 14.3889L122.057 18.634L120.461 22.7195L119.029 26.443L117.726 29.7685L116.187 33.7635L114.956 36.8175C114.592 37.7156 113.725 38.6566 112.849 38.983C111.833 39.3617 110.848 38.4279 109.906 39.3403L115.884 39.438L120.146 39.3022C118.818 38.6304 117.622 39.164 116.379 38.9329C115.626 38.7924 115.12 38.0634 115.387 37.3297L116.157 35.2072L117.511 31.7505L118.972 28.0533C119.062 27.8294 119.22 27.4054 119.41 27.4101C121.19 27.4602 123.357 28.1629 124.635 29.7447C127.747 33.592 127.377 39.3355 133.129 39.4356C136.725 39.4975 140.165 39.5595 143.786 39.3617C143.663 39.1616 143.315 38.9687 143.061 38.9973ZM134.885 38.5971C134.383 39.0521 131.611 39.1759 129.906 37.749C129.066 37.0438 128.502 35.8813 128.005 34.8474L126.208 31.1121C125.256 29.1349 123.577 27.5245 121.408 27.1076L119.443 26.7264C119.957 25.5449 120.395 24.5991 120.816 23.4628L122.064 20.1086L123.558 16.247C124.039 15.0083 124.444 13.8958 125.083 12.6618L126.74 16.5043L127.91 19.4297L129.21 22.6123L130.934 26.7765L132.643 30.9882L134.379 35.2929C134.705 36.11 135.544 38.0015 134.885 38.5971Z" fill="#D52685"/>
<path d="M23.701 44.6288C21.6435 44.6288 19.9766 46.3083 19.9766 48.3784C19.9766 50.4486 21.6435 52.128 23.701 52.128C25.7586 52.128 27.4278 50.4486 27.4278 48.3784C27.4278 46.3083 25.761 44.6288 23.701 44.6288ZM26.2558 49.2003C26.1422 50.2937 25.8533 51.0965 24.9985 51.6254C24.1651 52.1375 22.8747 52.1804 22.0625 51.3443C20.623 49.8625 20.6419 47.1277 21.9584 45.5102C22.6663 44.6431 23.9591 44.6026 24.7262 44.9814C26.3079 45.758 26.431 47.5303 26.2558 49.2003Z" fill="black"/>
<path d="M124.673 44.6145C122.611 44.6145 120.939 46.294 120.939 48.3689C120.939 50.4438 122.611 52.1256 124.673 52.1256C126.736 52.1256 128.405 50.4438 128.405 48.3689C128.405 46.294 126.733 44.6145 124.673 44.6145ZM126.392 51.2847C125.883 51.9112 124.903 52.078 124.181 51.9803C123.61 51.9041 122.774 51.3109 122.462 50.6368C121.711 49.0145 121.643 45.3316 124.091 44.8146C125 44.624 125.893 44.7455 126.497 45.5602C127.709 47.1873 127.756 49.6076 126.392 51.2847Z" fill="black"/>
<path d="M143.622 52.0161L138.733 45.6031L138.586 51.0298C138.577 51.3609 138.764 51.7778 138.941 52.028L138.155 52.0351C138.316 51.6825 138.413 51.299 138.418 50.8869L138.454 46.5226C138.458 45.889 138.416 45.403 138.349 44.6764C138.52 44.6335 139.093 44.755 139.249 44.9599L143.39 50.3723L143.452 45.2196C143.452 45.0909 143.21 44.6836 143.3 44.686L143.885 44.705C143.608 45.2863 143.584 46.0986 143.715 46.7228C143.757 46.9252 143.632 47.4184 143.632 47.6423L143.625 52.0161H143.622Z" fill="black"/>
<path d="M66.1616 48.469L66.2019 51.8565L68.4773 51.8756C68.7354 51.8756 69.1379 51.4015 69.3297 51.18L69.3178 52.0828L65.1577 52.0376C65.2714 51.6231 65.3921 51.1943 65.3921 50.8393L65.385 45.9724C65.385 45.5317 65.2903 45.0338 65.2264 44.6622C66.1735 44.7241 69.9642 44.0262 69.1474 45.3912C69.0006 44.6741 66.7725 44.6884 66.1901 44.798L66.1853 48.114C66.9714 48.1974 67.9209 48.2046 68.6241 48.0164C68.8656 47.821 68.8703 47.8449 68.868 47.9473L68.8514 48.5119L66.1616 48.4666V48.469Z" fill="black"/>
<path d="M80.3821 46.2797C79.8707 47.2778 79.6339 50.2056 81.0119 51.3776C82.3449 52.5092 84.9068 52.0018 85.2644 50.5438L85.217 51.6706C85.217 51.6492 82.2313 52.9975 80.3418 51.3776C78.424 49.7291 78.6773 46.587 80.7586 45.1695C82.1366 44.2309 83.8579 44.4668 85.2691 45.1243L85.217 46.3178C84.8358 45.0004 83.9692 44.8027 82.8706 44.8241C81.8383 44.8432 80.9409 45.1862 80.3797 46.282L80.3821 46.2797Z" fill="black"/>
<path d="M8.93092 51.8208C9.67912 51.6302 9.97509 51.2347 10.2048 50.6392L10.1929 51.797L8.09274 52.1543C6.6129 52.4068 4.95785 51.5468 4.42274 50.1294C3.74557 48.3403 4.16703 45.9581 5.97598 45.0362C7.40609 44.3049 8.74387 44.4716 10.2071 45.0576L10.1977 46.1701C10.0059 45.6794 9.81409 45.172 9.25293 44.9624C8.28216 44.6026 6.78575 44.6098 6.00439 45.496C4.65715 47.0254 4.62637 49.5124 5.81497 51.1276C6.5324 52.1019 7.82992 52.0971 8.92855 51.8184L8.93092 51.8208Z" fill="black"/>
<path d="M55.3222 51.2205L55.2891 52.059L51.1598 52.0471C51.2616 51.6946 51.3776 51.3325 51.3776 50.9894V45.4913C51.3776 45.3054 51.1645 44.8957 51.084 44.7218L52.3484 44.6527L52.2844 51.7946C53.0303 51.8566 55.0168 52.2067 55.3175 51.2181L55.3222 51.2205Z" fill="black"/>
<path d="M41.4493 51.2133V51.9637C40.7674 52.0256 39.9079 52.1614 39.1881 52.1257L37.2607 52.028C37.4762 51.7135 37.6467 51.2633 37.6467 50.844V46.1558C37.6467 45.6841 37.5685 45.2386 37.4667 44.6884L38.5938 44.6979C38.4896 45.1529 38.3665 45.6031 38.3688 45.9748L38.3854 51.8231L40.836 51.7969C40.9828 51.7969 41.2172 51.5301 41.4493 51.2156V51.2133Z" fill="black"/>
<path d="M97.8016 44.8504L97.8371 51.1752C97.8371 51.3634 98.0265 51.8041 98.0999 52.0257L96.8071 52.0304C96.9468 51.5325 97.0557 51.0918 97.0534 50.613L97.0273 44.7313C97.9484 44.5669 99.0778 44.5336 100.186 44.6765C100.243 44.9624 100.252 45.415 100.21 45.5722C99.7573 44.5741 98.8813 44.6694 97.8016 44.8528V44.8504Z" fill="black"/>
<path d="M111.045 52.0233L109.797 52.0185C110.102 51.1395 110.022 50.2962 110.019 49.3409L110.012 46.4012C110.012 45.7604 110.017 45.3578 109.797 44.667L110.988 44.7123C110.886 45.1339 110.81 45.446 110.81 45.8057L110.796 51.0299C110.796 51.2205 110.929 51.6159 111.045 52.0233Z" fill="black"/>
<path d="M60.3276 8.88364C53.4801 3.0591 43.4977 3.51887 37.2161 9.94134C35.6179 11.5755 34.2872 13.4813 33.4182 15.642C32.8855 16.9641 32.348 18.3149 32.1397 19.7251C31.794 22.074 31.7135 24.4753 32.2367 26.7932C33.101 30.6071 34.8981 34.0566 37.7133 36.739C45.1362 43.7999 57.1193 42.4539 63.1736 34.1423C69.029 26.1023 67.6486 15.1131 60.3276 8.88364ZM49.7509 39.4714C51.6262 36.7128 50.2576 35.5002 50.8803 33.6635C51.0816 33.0656 50.5962 32.9203 50.4446 32.5153C50.1889 31.8316 48.8346 28.2249 49.1897 27.9319C49.8267 27.4054 52.256 28.1225 53.2717 28.2749C53.8234 28.1272 54.3562 27.1529 54.4793 26.5216C51.3491 24.8636 53.061 24.4324 49.803 23.3128C49.5094 23.2127 49.2395 22.5886 49.2631 22.3075C49.3815 20.9234 51.2828 21.2235 50.9632 18.4626L50.5914 19.5727L49.0429 21.2069C47.5181 18.8747 51.4296 18.21 50.0729 14.1507C50.0611 16.0089 49.713 17.7574 48.155 18.8199L47.0825 17.3191C45.8891 15.6515 46.3319 13.8506 47.736 12.3712C46.6728 13.0263 45.8062 14.146 45.8015 15.4443C45.7944 16.8569 46.5687 18.129 47.3358 19.2296C48.4865 20.8829 47.3405 21.2021 48.4226 23.4819C48.1077 23.7773 46.9215 23.8392 46.7178 23.4128C45.9909 21.9001 47.4116 20.6661 46.7178 19.3321C46.5426 20.4541 46.3082 21.3403 45.8868 22.2169C43.68 20.8019 46.3485 18.2839 44.2412 15.8707C44.7337 17.4072 44.7929 19.0105 44.0967 20.4207C42.7613 19.8585 41.4496 19.2272 40.7819 17.8956C40.5428 17.4215 40.6327 16.5663 40.512 15.9755C40.1521 18.2982 40.1308 18.9676 42.328 20.4612C43.1449 21.0163 44.2767 21.4594 44.7052 22.3813L45.5126 24.1227L43.4977 24.5825C43.9121 26.0642 45.2427 25.6307 44.9728 28.1106L44.6176 31.3671C44.4495 32.9179 43.59 34.1662 41.9563 34.564C40.4599 34.9285 38.4165 34.6974 37.2705 33.4444C36.2311 32.3033 35.4332 30.862 34.8555 29.4517C32.4498 23.57 33.5129 17.0022 37.5192 12.1735C39.9011 9.30291 43.2609 7.33043 46.9735 6.78728C51.155 6.17743 55.2867 7.09697 58.5257 9.69836C59.9227 10.818 61.1326 11.8424 62.0276 13.3908C63.1949 15.4133 63.2754 14.9273 64.0947 17.2524C65.4893 21.2021 65.4632 25.3043 63.9313 29.235C61.6417 35.1095 56.2338 39.3761 49.7509 39.4714Z" fill="black"/>
</svg>
